<svg width="184" height="184" viewBox="0 0 184 184" fill="none" xmlns="http://www.w3.org/2000/svg">
<g filter="url(#filter0_di_103_541)">
<rect x="28" y="20" width="128" height="128" rx="40" fill="#6EE7B7"/>
<g filter="url(#filter1_di_103_541)">
<path d="M77 77V70C77 61.7157 83.7157 55 92 55V55C100.284 55 107 61.7157 107 70V77" stroke="white" stroke-width="4"/>
<path d="M77 77V70C77 61.7157 83.7157 55 92 55V55C100.284 55 107 61.7157 107 70V77" stroke="url(#paint0_linear_103_541)" stroke-opacity="0.5" stroke-width="4"/>
</g>
<g filter="url(#filter2_di_103_541)">
<path fill-rule="evenodd" clip-rule="evenodd" d="M72 76C69.7909 76 68 77.7909 68 80V108C68 110.209 69.7909 112 72 112H112C114.209 112 116 110.209 116 108V80C116 77.7909 114.209 76 112 76H72ZM92 98C94.2091 98 96 96.2091 96 94C96 91.7909 94.2091 90 92 90C89.7909 90 88 91.7909 88 94C88 96.2091 89.7909 98 92 98Z" fill="white"/>
<path fill-rule="evenodd" clip-rule="evenodd" d="M72 76C69.7909 76 68 77.7909 68 80V108C68 110.209 69.7909 112 72 112H112C114.209 112 116 110.209 116 108V80C116 77.7909 114.209 76 112 76H72ZM92 98C94.2091 98 96 96.2091 96 94C96 91.7909 94.2091 90 92 90C89.7909 90 88 91.7909 88 94C88 96.2091 89.7909 98 92 98Z" fill="url(#paint1_linear_103_541)" fill-opacity="0.2"/>
</g>
<rect x="28.25" y="20.25" width="127.5" height="127.5" rx="39.75" stroke="#6EE7B7" stroke-width="0.5"/>
</g>
<defs>
<filter id="filter0_di_103_541" x="0" y="0" width="184" height="184" filterUnits="userSpaceOnUse" color-interpolation-filters="sRGB">
<feFlood flood-opacity="0" result="BackgroundImageFix"/>
<feColorMatrix in="SourceAlpha" type="matrix" values="0 0 0 0 0 0 0 0 0 0 0 0 0 0 0 0 0 0 127 0" result="hardAlpha"/>
<feOffset dy="8"/>
<feGaussianBlur stdDeviation="14"/>
<feColorMatrix type="matrix" values="0 0 0 0 0.75 0 0 0 0 0.43 0 0 0 0 0.25 0 0 0 0.32 0"/>
<feBlend mode="normal" in2="BackgroundImageFix" result="effect1_dropShadow_103_541"/>
<feBlend mode="normal" in="SourceGraphic" in2="effect1_dropShadow_103_541" result="shape"/>
<feColorMatrix in="SourceAlpha" type="matrix" values="0 0 0 0 0 0 0 0 0 0 0 0 0 0 0 0 0 0 127 0" result="hardAlpha"/>
<feOffset dy="2"/>
<feGaussianBlur stdDeviation="1"/>
<feComposite in2="hardAlpha" operator="arithmetic" k2="-1" k3="1"/>
<feColorMatrix type="matrix" values="0 0 0 0 1 0 0 0 0 1 0 0 0 0 1 0 0 0 0.5 0"/>
<feBlend mode="normal" in2="shape" result="effect2_innerShadow_103_541"/>
</filter>
<filter id="filter1_di_103_541" x="72" y="51" width="40" height="30" filterUnits="userSpaceOnUse" color-interpolation-filters="sRGB">
<feFlood flood-opacity="0" result="BackgroundImageFix"/>
<feColorMatrix in="SourceAlpha" type="matrix" values="0 0 0 0 0 0 0 0 0 0 0 0 0 0 0 0 0 0 127 0" result="hardAlpha"/>
<feOffset dy="1"/>
<feGaussianBlur stdDeviation="1.5"/>
<feComposite in2="hardAlpha" operator="out"/>
<feColorMatrix type="matrix" values="0 0 0 0 0.749542 0 0 0 0 0.560141 0 0 0 0 0.19248 0 0 0 0.5 0"/>
<feBlend mode="normal" in2="BackgroundImageFix" result="effect1_dropShadow_103_541"/>
<feBlend mode="normal" in="SourceGraphic" in2="effect1_dropShadow_103_541" result="shape"/>
<feColorMatrix in="SourceAlpha" type="matrix" values="0 0 0 0 0 0 0 0 0 0 0 0 0 0 0 0 0 0 127 0" result="hardAlpha"/>
<feOffset dy="1"/>
<feComposite in2="hardAlpha" operator="arithmetic" k2="-1" k3="1"/>
<feColorMatrix type="matrix" values="0 0 0 0 1 0 0 0 0 1 0 0 0 0 1 0 0 0 1 0"/>
<feBlend mode="normal" in2="shape" result="effect2_innerShadow_103_541"/>
</filter>
<filter id="filter2_di_103_541" x="64" y="74" width="56" height="44" filterUnits="userSpaceOnUse" color-interpolation-filters="sRGB">
<feFlood flood-opacity="0" result="BackgroundImageFix"/>
<feColorMatrix in="SourceAlpha" type="matrix" values="0 0 0 0 0 0 0 0 0 0 0 0 0 0 0 0 0 0 127 0" result="hardAlpha"/>
<feOffset dy="2"/>
<feGaussianBlur stdDeviation="2"/>
<feComposite in2="hardAlpha" operator="out"/>
<feColorMatrix type="matrix" values="0 0 0 0 0.883688 0 0 0 0 0.589126 0 0 0 0 0 0 0 0 1 0"/>
<feBlend mode="normal" in2="BackgroundImageFix" result="effect1_dropShadow_103_541"/>
<feBlend mode="normal" in="SourceGraphic" in2="effect1_dropShadow_103_541" result="shape"/>
<feColorMatrix in="SourceAlpha" type="matrix" values="0 0 0 0 0 0 0 0 0 0 0 0 0 0 0 0 0 0 127 0" result="hardAlpha"/>
<feOffset dy="0.5"/>
<feComposite in2="hardAlpha" operator="arithmetic" k2="-1" k3="1"/>
<feColorMatrix type="matrix" values="0 0 0 0 1 0 0 0 0 1 0 0 0 0 1 0 0 0 1 0"/>
<feBlend mode="normal" in2="shape" result="effect2_innerShadow_103_541"/>
</filter>
<linearGradient id="paint0_linear_103_541" x1="91.0277" y1="54.321" x2="91.0277" y2="81.4136" gradientUnits="userSpaceOnUse">
<stop stop-color="white"/>
<stop offset="1" stop-color="#FF9A02" stop-opacity="0.4"/>
</linearGradient>
<linearGradient id="paint1_linear_103_541" x1="52.5" y1="93" x2="131" y2="93" gradientUnits="userSpaceOnUse">
<stop stop-color="#07FF02"/>
<stop offset="0.490559" stop-color="white" stop-opacity="0.01"/>
<stop offset="1" stop-color="#FF9A02"/>
</linearGradient>
</defs>
</svg>
